<?xml version="1.0" standalone="no"?>
<!DOCTYPE svg PUBLIC "-//W3C//DTD SVG 20010904//EN"
 "http://www.w3.org/TR/2001/REC-SVG-20010904/DTD/svg10.dtd">
<svg version="1.0" xmlns="http://www.w3.org/2000/svg"
 width="182.000000pt" height="207.000000pt" viewBox="0 0 182.000000 207.000000"
 preserveAspectRatio="xMidYMid meet">

<g transform="translate(0.000000,207.000000) scale(0.100000,-0.100000)"
fill="#000000" stroke="none">
<path d="M33 1930 c-12 -5 -25 -19 -28 -32 -3 -13 -4 -411 -3 -886 3 -1003
-13 -892 131 -892 l89 0 -4 25 c-3 13 -1 23 5 22 5 -1 11 6 12 15 2 11 -2 15
-11 11 -17 -6 -10 37 8 49 12 7 3 12 -16 9 -5 -1 -3 5 4 14 18 22 20 67 2 60
-8 -3 -10 0 -6 7 9 15 9 60 -1 111 -6 32 -5 37 11 37 13 0 15 3 7 11 -7 7 -8
20 -3 34 6 15 4 29 -6 43 -10 15 -11 23 -3 28 8 4 9 3 5 -4 -5 -8 -1 -10 9 -6
14 6 12 9 -8 23 -20 13 -22 18 -12 28 7 6 15 9 18 6 3 -3 3 4 0 16 -3 11 -9
18 -14 15 -5 -3 -9 0 -9 5 0 6 5 11 10 11 18 0 11 48 -7 53 -13 3 -11 5 6 6
17 1 21 4 13 14 -5 6 -8 27 -6 45 2 21 -1 32 -9 32 -7 1 -4 6 6 14 12 9 14 16
7 21 -6 4 -8 15 -5 26 4 10 2 19 -4 19 -6 0 -7 7 -4 17 5 12 3 14 -7 8 -9 -6
-11 -4 -5 5 6 10 11 9 22 -5 12 -18 13 -17 11 8 -1 15 -6 27 -10 27 -5 0 -6
15 -2 33 11 59 10 86 -2 91 -7 3 -12 14 -11 25 0 11 4 18 8 15 4 -2 7 5 6 16
-1 11 -5 20 -9 20 -4 0 -5 7 -2 15 4 8 10 12 15 9 10 -6 0 25 -14 44 -7 9 -6
11 7 6 11 -4 16 -1 16 11 0 11 -5 15 -15 11 -8 -3 -15 -1 -15 4 0 6 5 10 10
10 18 0 11 20 -7 21 -12 1 -10 4 7 9 16 5 19 8 8 9 -16 1 -23 41 -7 41 10 0
19 73 10 84 -12 16 -20 57 -10 50 13 -8 11 10 -3 25 -11 11 -10 12 1 6 10 -6
12 -1 6 24 -4 20 -3 31 5 31 6 0 8 -5 4 -12 -4 -7 -3 -8 5 -4 9 6 9 11 0 22
-6 8 -9 23 -6 33 3 14 1 18 -9 14 -8 -3 -14 -1 -14 5 0 5 7 13 16 16 12 5 14
10 5 20 -6 7 -8 16 -4 19 3 4 0 7 -8 7 -11 0 -11 2 1 10 17 11 20 30 8 47 -5
6 -5 14 2 18 7 4 7 12 0 26 -6 10 -8 19 -4 19 3 0 0 8 -7 17 -10 11 -10 14 -1
9 6 -4 12 -2 12 3 0 6 -4 11 -10 11 -5 0 -10 5 -10 10 0 6 6 9 13 8 7 -2 12 8
13 23 l1 27 -91 0 c-50 1 -101 -3 -113 -8z m192 -9 c3 -5 2 -12 -3 -15 -5 -3
-9 1 -9 9 0 17 3 19 12 6z m5 -495 c0 -3 -4 -8 -10 -11 -5 -3 -10 -1 -10 4 0
6 5 11 10 11 6 0 10 -2 10 -4z m-25 -706 c-3 -5 -12 -10 -18 -10 -7 0 -6 4 3
10 19 12 23 12 15 0z"/>
<path d="M230 1349 c0 -5 5 -7 10 -4 6 3 10 8 10 11 0 2 -4 4 -10 4 -5 0 -10
-5 -10 -11z"/>
</g>
</svg>
